<svg width="16" height="14" viewBox="0 0 16 14" fill="none" xmlns="http://www.w3.org/2000/svg">
<path d="M16 1.6573C15.4008 1.94325 14.7652 2.13082 14.1144 2.21375C14.8001 1.77239 15.3131 1.07733 15.5576 0.258417C14.9134 0.670119 14.2086 0.960273 13.4736 1.11635C13.1666 0.763415 12.7955 0.482198 12.3833 0.290158C11.9711 0.0981186 11.5267 -0.000643666 11.0776 3.15671e-06C8.9576 3.15671e-06 7.4008 2.12933 7.8792 4.33877C6.57417 4.26866 5.29743 3.90382 4.13186 3.26794C2.96628 2.63206 1.93794 1.73934 1.1136 0.64776C0.694195 1.42599 0.565804 2.347 0.754533 3.22352C0.943262 4.10003 1.43494 4.86626 2.1296 5.36639C1.60849 5.34884 1.09885 5.19733 0.6432 4.92451C0.6072 6.56113 1.6976 8.09352 3.276 8.43463C2.79257 8.57596 2.28555 8.59658 1.7936 8.49492C2.00321 9.19719 2.41151 9.81132 2.96134 10.2514C3.51118 10.6914 4.17503 10.9353 4.86 10.949C3.48401 12.1107 1.73609 12.6371 0 12.4125C1.50102 13.4508 3.24791 14.0019 5.032 14C11.1264 14 14.5696 8.45788 14.3624 3.48687C15.0047 2.98643 15.5592 2.36691 16 1.6573Z" fill="#FEFEFC"/>
</svg>
